<svg id="e22b12d6-a64f-408a-ab44-2f759aeabebd" data-name="Warstwa 1" xmlns="http://www.w3.org/2000/svg" viewBox="0 0 45 45"><title>orange_logo</title><rect x="36" y="9" width="9" height="18" transform="translate(81 36) rotate(-180)" fill="#f7931e"/><rect x="9" width="27" height="9" transform="translate(45 9) rotate(-180)" fill="#f7931e"/><rect y="9" width="9" height="27" transform="translate(9 45) rotate(-180)" fill="#f7931e"/><rect y="27" width="27" height="9" transform="translate(27 63) rotate(-180)" fill="#f7931e"/><rect x="27" y="36" width="9" height="9" rx="1.24" transform="translate(63 81) rotate(-180)" fill="#f7931e"/><path d="M27,9a9,9,0,1,1,9,9V9Z" transform="translate(0 0)" fill="#f7931e"/><path d="M45,27a9,9,0,0,1-9,9V18A9,9,0,0,1,45,27Z" transform="translate(0 0)" fill="#f7931e"/><path d="M9,0a9,9,0,0,1,9,9H9v9A9,9,0,0,1,9,0Z" transform="translate(0 0)" fill="#f7931e"/><path d="M18,18a9,9,0,1,1-9,9h9Z" transform="translate(0 0)" fill="#f7931e"/></svg>